PathFileType	4	(X/Y/Z) rotbonepin.trc
DataRate	CameraRate	NumFrames	NumMarkers	Units	OrigDataRate	OrigDataStartFrame	OrigNumFrames
100	100	14	11	mm	100	1967	3147
Frame#	Time	gu			centelbow			EpL			centpxt8			centijc7			ij			ts			ac			ai			acc			ijc
		X1	Y1	Z1	X2	Y2	Z2	X3	Y3	Z3	X4	Y4	Z4	X5	Y5	Z5	X6	Y6	Z6	X7	Y7	Z7	X8	Y8	Z8	X9	Y9	Z9  X10	Y10	Z10  X11	Y11	Z11
1966	19.66	322.397	18.368	8.414	408.243	-8.679	247.598	383.119	5.891	251.151	336.251	-170.606	-114.306	321.211	23.9	-141.951	365.583	-8.702	-137.204	242.037	-21.058	-66.626	305.346	55.589	-10.713	291.285	-129.093	-16.306	305.346	55.589	-10.713	365.583	-8.702	-137.204
1967	19.67	322.796	18.505	8.572	408.615	-8.476	247.773	383.402	5.937	251.333	336.264	-170.632	-114.348	321.219	23.875	-141.986	365.593	-8.726	-137.241	242.064	-21.081	-66.664	305.324	55.609	-10.754	291.371	-129.081	-16.328	305.324	55.609	-10.754	365.593	-8.726	-137.241
1968	19.68	322.938	18.598	8.639	408.666	-8.382	247.873	383.367	5.881	251.436	336.29	-170.663	-114.391	321.254	23.846	-142.023	365.625	-8.757	-137.278	242.098	-21.108	-66.673	305.305	55.629	-10.769	291.462	-129.071	-16.31	305.305	55.629	-10.769	365.625	-8.757	-137.278
1969	19.69	322.688	18.531	8.51	408.488	-8.566	247.705	383.132	5.588	251.293	336.319	-170.678	-114.43	321.304	23.832	-142.059	365.672	-8.777	-137.318	242.117	-21.178	-66.676	305.287	55.61	-10.799	291.532	-129.099	-16.274	305.287	55.61	-10.799	365.672	-8.777	-137.318
1970	19.7	322.427	18.394	8.358	408.433	-8.882	247.458	383.037	5.19	251.085	336.327	-170.701	-114.463	321.343	23.812	-142.091	365.706	-8.805	-137.359	242.119	-21.292	-66.687	305.255	55.55	-10.845	291.587	-129.168	-16.239	305.255	55.55	-10.845	365.706	-8.805	-137.359
1971	19.71	322.522	18.357	8.389	408.639	-9.071	247.432	383.196	4.909	251.086	336.313	-170.729	-114.465	321.361	23.785	-142.105	365.719	-8.84	-137.375	242.135	-21.414	-66.688	305.208	55.494	-10.866	291.669	-129.235	-16.19	305.208	55.494	-10.866	365.719	-8.84	-137.375
1972	19.72	322.84	18.429	8.549	408.883	-9.088	247.608	383.378	4.777	251.268	336.297	-170.728	-114.425	321.364	23.783	-142.09	365.719	-8.844	-137.349	242.169	-21.508	-66.681	305.152	55.474	-10.859	291.787	-129.269	-16.139	305.152	55.474	-10.859	365.719	-8.844	-137.349
1973	19.73	322.956	18.463	8.597	408.924	-9.13	247.674	383.358	4.62	251.339	336.297	-170.687	-114.392	321.35	23.822	-142.068	365.707	-8.801	-137.318	242.182	-21.574	-66.691	305.077	55.482	-10.873	291.9	-129.275	-16.119	305.077	55.482	-10.873	365.707	-8.801	-137.318
1974	19.74	322.736	18.385	8.446	408.839	-9.297	247.465	383.224	4.354	251.157	336.314	-170.624	-114.439	321.315	23.885	-142.086	365.681	-8.727	-137.341	242.149	-21.636	-66.729	304.977	55.499	-10.944	291.982	-129.273	-16.133	304.977	55.499	-10.944	365.681	-8.727	-137.341
1975	19.75	322.493	18.327	8.257	408.905	-9.385	247.161	383.243	4.165	250.895	336.342	-170.567	-114.566	321.272	23.945	-142.147	365.65	-8.653	-137.423	242.113	-21.708	-66.787	304.893	55.505	-11.056	292.058	-129.28	-16.165	304.893	55.505	-11.056	365.65	-8.653	-137.423
1976	19.76	322.548	18.445	8.194	409.206	-9.186	247.018	383.478	4.232	250.783	336.359	-170.553	-114.695	321.241	23.965	-142.214	365.627	-8.625	-137.511	242.121	-21.776	-66.851	304.857	55.501	-11.159	292.156	-129.296	-16.204	304.857	55.501	-11.159	365.627	-8.625	-137.511
1977	19.77	322.803	18.665	8.238	409.491	-8.869	247.062	383.682	4.391	250.837	336.346	-170.587	-114.763	321.231	23.935	-142.258	365.617	-8.657	-137.56	242.159	-21.827	-66.894	304.842	55.504	-11.218	292.268	-129.302	-16.225	304.842	55.504	-11.218	365.617	-8.657	-137.56
1978	19.78	322.888	18.767	8.255	409.481	-8.822	247.108	383.599	4.294	250.884	336.327	-170.619	-114.765	321.244	23.903	-142.274	365.623	-8.694	-137.564	242.179	-21.886	-66.896	304.803	55.499	-11.228	292.36	-129.317	-16.205	304.803	55.499	-11.228	365.623	-8.694	-137.564
1979	19.79	322.678	18.655	8.2	409.224	-9.167	247.043	383.294	3.848	250.833	336.31	-170.607	-114.752	321.258	23.915	-142.278	365.633	-8.688	-137.554	242.166	-21.985	-66.879	304.733	55.454	-11.223	292.413	-129.371	-16.157	304.733	55.454	-11.223	365.633	-8.688	-137.554
